{"asset":{"version":"2.0","generator":"VECTARY"},"nodes":[{"translation":[0.1781154716597973,0.1,-0.0009999999999999929],"scale":[0.002,0.005,0.0003],"rotation":[-0.5,0.5,-0.4999999999999999,0.5000000000000001],"name":"Box 3","mesh":0},{"translation":[-0.15309014153703482,0.1,-0.0009999999999999929],"scale":[0.002,0.005,0.0033],"rotation":[-0.5,0.5,-0.4999999999999999,0.5000000000000001],"name":"Box 4","mesh":1},{"translation":[-0.18054130190947726,0.1,-0.0009999999999999929],"scale":[0.002,0.005,0.0003],"rotation":[-0.5,0.5,-0.4999999999999999,0.5000000000000001],"name":"Box 2","mesh":2},{"translation":[0.5274342036105338,0.2,-0.0009999999999999857],"scale":[0.007,0.005,0.0003],"rotation":[-0.7071067811865475,0,0,0.7071067811865476],"name":"Box 1","mesh":3},{"translation":[-0.5,0.2,-0.0009999999999999857],"scale":[0.007,0.005,0.0003],"rotation":[-0.7071067811865475,0,0,0.7071067811865476],"name":"Box","mesh":4},{"translation":[0,0,0],"scale":[0.02,0.005,0.001],"rotation":[-0.7071067811865475,0,0,0.7071067811865476],"name":"Plane","mesh":5}],"materials":[{"pbrMetallicRoughness":{"baseColorFactor":[1,1,1,1],"baseColorTexture":{"index":0,"extensions":{"KHR_texture_transform":{"offset":[0,0],"scale":[1,1],"rotation":0}},"texCoord":0},"metallicRoughnessTexture":{"index":2,"extensions":{"KHR_texture_transform":{"offset":[0,0],"scale":[1,1],"rotation":0}},"texCoord":0},"metallicFactor":1,"roughnessFactor":1},"name":"Concrete 3","normalTexture":{"index":1,"scale":1,"extensions":{"KHR_texture_transform":{"offset":[0,0],"scale":[1,1],"rotation":0}},"texCoord":0},"emissiveFactor":[0,0,0],"extensions":{},"alphaMode":"OPAQUE","doubleSided":false},{"pbrMetallicRoughness":{"baseColorFactor":[1,1,1,1],"baseColorTexture":{"index":3,"extensions":{"KHR_texture_transform":{"offset":[0,0],"scale":[1,1],"rotation":0}},"texCoord":0},"metallicRoughnessTexture":{"index":2,"extensions":{"KHR_texture_transform":{"offset":[0,0],"scale":[1,1],"rotation":0}},"texCoord":0},"metallicFactor":1,"roughnessFactor":1},"name":"Concrete 4","normalTexture":{"index":1,"scale":1,"extensions":{"KHR_texture_transform":{"offset":[0,0],"scale":[1,1],"rotation":0}},"texCoord":0},"emissiveFactor":[0,0,0],"extensions":{},"alphaMode":"OPAQUE","doubleSided":false},{"pbrMetallicRoughness":{"baseColorFactor":[1,1,1,1],"baseColorTexture":{"index":0,"extensions":{"KHR_texture_transform":{"offset":[0,0],"scale":[1,1],"rotation":0}},"texCoord":0},"metallicRoughnessTexture":{"index":2,"extensions":{"KHR_texture_transform":{"offset":[0,0],"scale":[1,1],"rotation":0}},"texCoord":0},"metallicFactor":1,"roughnessFactor":1},"name":"Concrete 2","normalTexture":{"index":1,"scale":1,"extensions":{"KHR_texture_transform":{"offset":[0,0],"scale":[1,1],"rotation":0}},"texCoord":0},"emissiveFactor":[0,0,0],"extensions":{},"alphaMode":"OPAQUE","doubleSided":false},{"pbrMetallicRoughness":{"baseColorFactor":[1,1,1,1],"baseColorTexture":{"index":0,"extensions":{"KHR_texture_transform":{"offset":[0,0],"scale":[1,1],"rotation":0}},"texCoord":0},"metallicRoughnessTexture":{"index":2,"extensions":{"KHR_texture_transform":{"offset":[0,0],"scale":[1,1],"rotation":0}},"texCoord":0},"metallicFactor":1,"roughnessFactor":1},"name":"Concrete 1","normalTexture":{"index":1,"scale":1,"extensions":{"KHR_texture_transform":{"offset":[0,0],"scale":[1,1],"rotation":0}},"texCoord":0},"emissiveFactor":[0,0,0],"extensions":{},"alphaMode":"OPAQUE","doubleSided":false},{"pbrMetallicRoughness":{"baseColorFactor":[1,1,1,1],"baseColorTexture":{"index":0,"extensions":{"KHR_texture_transform":{"offset":[0,0],"scale":[1,1],"rotation":0}},"texCoord":0},"metallicRoughnessTexture":{"index":2,"extensions":{"KHR_texture_transform":{"offset":[0,0],"scale":[1,1],"rotation":0}},"texCoord":0},"metallicFactor":1,"roughnessFactor":1},"name":"Concrete","normalTexture":{"index":1,"scale":1,"extensions":{"KHR_texture_transform":{"offset":[0,0],"scale":[1,1],"rotation":0}},"texCoord":0},"emissiveFactor":[0,0,0],"extensions":{},"alphaMode":"OPAQUE","doubleSided":false},{"pbrMetallicRoughness":{"baseColorFactor":[0.8670237934377415,0.8670237934377415,0.8670237934377415,1],"metallicFactor":0,"roughnessFactor":0.2},"name":"Allegro","emissiveFactor":[0,0,0],"extensions":{},"alphaMode":"OPAQUE","doubleSided":false}],"textures":[{"sampler":0,"source":0},{"sampler":0,"source":1},{"sampler":0,"source":2},{"sampler":0,"source":3}],"images":[{"uri":"Concrete_001_Color.jpg","mimeType":"image/jpeg"},{"uri":"Concrete_001_NormalMap.jpg","mimeType":"image/jpeg"},{"uri":"Concrete_001_Metalic&Concrete_001_Roughness.jpg","mimeType":"image/jpeg"},{"uri":"lava.jpg","mimeType":"image/jpeg"}],"samplers":[{"wrapS":10497,"wrapT":10497}],"meshes":[{"primitives":[{"mode":4,"attributes":{"POSITION":1,"NORMAL":2,"TEXCOORD_0":3},"material":0,"indices":0}]},{"primitives":[{"mode":4,"attributes":{"POSITION":5,"NORMAL":6,"TEXCOORD_0":7},"material":1,"indices":4}]},{"primitives":[{"mode":4,"attributes":{"POSITION":9,"NORMAL":10,"TEXCOORD_0":11},"material":2,"indices":8}]},{"primitives":[{"mode":4,"attributes":{"POSITION":13,"NORMAL":14,"TEXCOORD_0":15},"material":3,"indices":12}]},{"primitives":[{"mode":4,"attributes":{"POSITION":17,"NORMAL":18,"TEXCOORD_0":19},"material":4,"indices":16}]},{"primitives":[{"mode":4,"attributes":{"POSITION":21,"NORMAL":22,"TEXCOORD_0":23},"material":5,"indices":20}]}],"accessors":[{"bufferView":0,"byteOffset":0,"componentType":5125,"count":2916,"type":"SCALAR"},{"bufferView":1,"byteOffset":0,"componentType":5126,"count":596,"max":[50,50,100],"min":[-50,-50,0],"type":"VEC3"},{"bufferView":2,"byteOffset":0,"componentType":5126,"count":596,"type":"VEC3"},{"bufferView":3,"byteOffset":0,"componentType":5126,"count":596,"type":"VEC2"},{"bufferView":4,"byteOffset":0,"componentType":5125,"count":2916,"type":"SCALAR"},{"bufferView":5,"byteOffset":0,"componentType":5126,"count":596,"max":[50,50,100],"min":[-50,-50,0],"type":"VEC3"},{"bufferView":6,"byteOffset":0,"componentType":5126,"count":596,"type":"VEC3"},{"bufferView":7,"byteOffset":0,"componentType":5126,"count":596,"type":"VEC2"},{"bufferView":8,"byteOffset":0,"componentType":5125,"count":2916,"type":"SCALAR"},{"bufferView":9,"byteOffset":0,"componentType":5126,"count":596,"max":[50,50,100],"min":[-50,-50,0],"type":"VEC3"},{"bufferView":10,"byteOffset":0,"componentType":5126,"count":596,"type":"VEC3"},{"bufferView":11,"byteOffset":0,"componentType":5126,"count":596,"type":"VEC2"},{"bufferView":12,"byteOffset":0,"componentType":5125,"count":2916,"type":"SCALAR"},{"bufferView":13,"byteOffset":0,"componentType":5126,"count":596,"max":[50,50,100],"min":[-50,-50,0],"type":"VEC3"},{"bufferView":14,"byteOffset":0,"componentType":5126,"count":596,"type":"VEC3"},{"bufferView":15,"byteOffset":0,"componentType":5126,"count":596,"type":"VEC2"},{"bufferView":16,"byteOffset":0,"componentType":5125,"count":2916,"type":"SCALAR"},{"bufferView":17,"byteOffset":0,"componentType":5126,"count":596,"max":[50,50,100],"min":[-50,-50,0],"type":"VEC3"},{"bufferView":18,"byteOffset":0,"componentType":5126,"count":596,"type":"VEC3"},{"bufferView":19,"byteOffset":0,"componentType":5126,"count":596,"type":"VEC2"},{"bufferView":20,"byteOffset":0,"componentType":5125,"count":4998,"type":"SCALAR"},{"bufferView":21,"byteOffset":0,"componentType":5126,"count":868,"max":[50,50,0],"min":[-50,-50,0],"type":"VEC3"},{"bufferView":22,"byteOffset":0,"componentType":5126,"count":868,"type":"VEC3"},{"bufferView":23,"byteOffset":0,"componentType":5126,"count":868,"type":"VEC2"}],"bufferViews":[{"buffer":0,"byteOffset":0,"byteLength":11664,"target":34963},{"buffer":0,"byteOffset":11664,"byteLength":7152,"target":34962},{"buffer":0,"byteOffset":18816,"byteLength":7152,"target":34962},{"buffer":0,"byteOffset":25968,"byteLength":4768,"target":34962},{"buffer":0,"byteOffset":30736,"byteLength":11664,"target":34963},{"buffer":0,"byteOffset":42400,"byteLength":7152,"target":34962},{"buffer":0,"byteOffset":49552,"byteLength":7152,"target":34962},{"buffer":0,"byteOffset":56704,"byteLength":4768,"target":34962},{"buffer":0,"byteOffset":61472,"byteLength":11664,"target":34963},{"buffer":0,"byteOffset":73136,"byteLength":7152,"target":34962},{"buffer":0,"byteOffset":80288,"byteLength":7152,"target":34962},{"buffer":0,"byteOffset":87440,"byteLength":4768,"target":34962},{"buffer":0,"byteOffset":92208,"byteLength":11664,"target":34963},{"buffer":0,"byteOffset":103872,"byteLength":7152,"target":34962},{"buffer":0,"byteOffset":111024,"byteLength":7152,"target":34962},{"buffer":0,"byteOffset":118176,"byteLength":4768,"target":34962},{"buffer":0,"byteOffset":122944,"byteLength":11664,"target":34963},{"buffer":0,"byteOffset":134608,"byteLength":7152,"target":34962},{"buffer":0,"byteOffset":141760,"byteLength":7152,"target":34962},{"buffer":0,"byteOffset":148912,"byteLength":4768,"target":34962},{"buffer":0,"byteOffset":153680,"byteLength":19992,"target":34963},{"buffer":0,"byteOffset":173672,"byteLength":10416,"target":34962},{"buffer":0,"byteOffset":184088,"byteLength":10416,"target":34962},{"buffer":0,"byteOffset":194504,"byteLength":6944,"target":34962}],"scene":0,"scenes":[{"nodes":[0,1,2,3,4,5],"name":"Demo"}],"extensionsUsed":["KHR_texture_transform"],"buffers":[{"byteLength":201448,"uri":"Demo.bin"}]}