{"asset":{"version":"2.0","generator":"VECTARY"},"nodes":[{"translation":[-0.15309014153703482,0.1,-0.0009999999999999929],"scale":[0.002,0.005,0.0033],"rotation":[-0.5,0.5,-0.4999999999999999,0.5000000000000001],"name":"Box 4","mesh":0}],"materials":[{"pbrMetallicRoughness":{"baseColorFactor":[1,1,1,1],"baseColorTexture":{"index":0,"extensions":{"KHR_texture_transform":{"offset":[0,0],"scale":[1,1],"rotation":0}},"texCoord":0},"metallicRoughnessTexture":{"index":2,"extensions":{"KHR_texture_transform":{"offset":[0,0],"scale":[1,1],"rotation":0}},"texCoord":0},"metallicFactor":1,"roughnessFactor":1},"name":"Concrete 4","normalTexture":{"index":1,"scale":1,"extensions":{"KHR_texture_transform":{"offset":[0,0],"scale":[1,1],"rotation":0}},"texCoord":0},"emissiveFactor":[0,0,0],"extensions":{},"alphaMode":"OPAQUE","doubleSided":false}],"textures":[{"sampler":0,"source":0},{"sampler":0,"source":1},{"sampler":0,"source":2}],"images":[{"uri":"lava.jpg","mimeType":"image/jpeg"},{"uri":"Concrete_001_NormalMap.jpg","mimeType":"image/jpeg"},{"uri":"Concrete_001_Metalic&Concrete_001_Roughness.jpg","mimeType":"image/jpeg"}],"samplers":[{"wrapS":10497,"wrapT":10497}],"meshes":[{"primitives":[{"mode":4,"attributes":{"POSITION":1,"NORMAL":2,"TEXCOORD_0":3},"material":0,"indices":0}]}],"accessors":[{"bufferView":0,"byteOffset":0,"componentType":5125,"count":2916,"type":"SCALAR"},{"bufferView":1,"byteOffset":0,"componentType":5126,"count":596,"max":[50,50,100],"min":[-50,-50,0],"type":"VEC3"},{"bufferView":2,"byteOffset":0,"componentType":5126,"count":596,"type":"VEC3"},{"bufferView":3,"byteOffset":0,"componentType":5126,"count":596,"type":"VEC2"}],"bufferViews":[{"buffer":0,"byteOffset":0,"byteLength":11664,"target":34963},{"buffer":0,"byteOffset":11664,"byteLength":7152,"target":34962},{"buffer":0,"byteOffset":18816,"byteLength":7152,"target":34962},{"buffer":0,"byteOffset":25968,"byteLength":4768,"target":34962}],"scene":0,"scenes":[{"nodes":[0],"name":"Demo"}],"extensionsUsed":["KHR_texture_transform"],"buffers":[{"byteLength":30736,"uri":"Demo.bin"}]}