{"asset":{"version":"2.0","generator":"VECTARY"},"nodes":[{"translation":[0,0,0],"scale":[1,0.9999999999999999,0.9999999999999999],"rotation":[-0.7071067811865475,0,0,0.7071067811865476],"name":"Toy Spaceship","mesh":0}],"materials":[{"pbrMetallicRoughness":{"baseColorFactor":[1,1,1,1],"baseColorTexture":{"index":0,"extensions":{"KHR_texture_transform":{"offset":[0,0],"scale":[1,1],"rotation":0}},"texCoord":0},"metallicFactor":0,"roughnessFactor":0.14},"name":"Material.001","emissiveFactor":[0,0,0],"occlusionTexture":{"index":1,"strength":1,"extensions":{"KHR_texture_transform":{"offset":[0,0],"scale":[1,1],"rotation":0}},"texCoord":1},"extensions":{},"alphaMode":"OPAQUE","doubleSided":false}],"textures":[{"sampler":0,"source":0},{"sampler":0,"source":1}],"images":[{"uri":"Spaceship_2_06_UV_DefaultMaterial_BaseColor.jpg","mimeType":"image/jpeg"},{"uri":"Grayscale.png","mimeType":"image/png"}],"samplers":[{"wrapS":10497,"wrapT":10497}],"meshes":[{"primitives":[{"mode":4,"attributes":{"POSITION":1,"NORMAL":2,"TEXCOORD_0":3,"TEXCOORD_1":4},"material":0,"indices":0}]}],"accessors":[{"bufferView":0,"byteOffset":0,"componentType":5125,"count":289488,"type":"SCALAR"},{"bufferView":1,"byteOffset":0,"componentType":5126,"count":66559,"max":[0.39359185099601746,0.39359188079833984,1.0008891820907593],"min":[-0.39359185099601746,-0.39359182119369507,-6.874704467918491e-7],"type":"VEC3"},{"bufferView":2,"byteOffset":0,"componentType":5126,"count":66559,"type":"VEC3"},{"bufferView":3,"byteOffset":0,"componentType":5126,"count":66559,"type":"VEC2"},{"bufferView":4,"byteOffset":0,"componentType":5126,"count":66559,"type":"VEC2"}],"bufferViews":[{"buffer":0,"byteOffset":0,"byteLength":1157952,"target":34963},{"buffer":0,"byteOffset":1157952,"byteLength":798708,"target":34962},{"buffer":0,"byteOffset":1956660,"byteLength":798708,"target":34962},{"buffer":0,"byteOffset":2755368,"byteLength":532472,"target":34962},{"buffer":0,"byteOffset":3287840,"byteLength":532472,"target":34962}],"scene":0,"scenes":[{"nodes":[0],"name":"Demo"}],"extensionsUsed":["KHR_texture_transform"],"buffers":[{"byteLength":3820312,"uri":"Demo.bin"}]}