{"asset":{"version":"2.0","generator":"VECTARY"},"nodes":[{"translation":[0.00008229496912739264,1.3877787807814457e-20,-0.0000856278823218588],"scale":[0.001,0.001,0.001],"rotation":[-0.7071067811865475,0,0,0.7071067811865476],"name":"Office building","children":[1,2]},{"translation":[-0.08229496912739265,-0.0856278823218588,0],"scale":[1,1,1],"rotation":[0,0,0,1],"name":"Project Name"},{"translation":[1.7763568394002505e-15,-1.7763568394002505e-15,0],"scale":[1,1,1],"rotation":[0,0,0,1],"name":"Office building","children":[3,4,5,6,7,8,9]},{"translation":[10.000000000000004,-5.000000000000001,0],"scale":[1,1,1],"rotation":[0,0,1,-2.83276944882399e-16],"name":"Main building","mesh":0},{"translation":[2.886579864025408e-15,-5.000000000000005,0],"scale":[1,1,1],"rotation":[0,0,-0.7071067811865475,0.7071067811865476],"name":"Top floor","mesh":1},{"translation":[10.000000000000004,-5.000000000000001,0],"scale":[1,1,1],"rotation":[0,0,1,-2.83276944882399e-16],"name":"Roof","mesh":2},{"translation":[10.000000000000004,-5.000000000000001,0],"scale":[1,1,1],"rotation":[0,0,1,-2.83276944882399e-16],"name":"Window glass","mesh":3},{"translation":[10.000000000000004,-5.000000000000001,0],"scale":[1,1,1],"rotation":[0,0,1,-2.83276944882399e-16],"name":"Window frames","mesh":4},{"translation":[10.000000000000004,-5.000000000000001,0],"scale":[1,1,1],"rotation":[0,0,1,-2.83276944882399e-16],"name":"Window frames 1","mesh":5},{"translation":[10.000000000000004,-5.000000000000001,0],"scale":[1,1,1],"rotation":[0,0,1,-2.83276944882399e-16],"name":"Roof 1","mesh":6}],"materials":[{"pbrMetallicRoughness":{"baseColorFactor":[0.8512516451845149,0.8512516451845149,0.8512516451845149,1],"metallicFactor":0,"roughnessFactor":1},"name":"White material","emissiveFactor":[0,0,0],"extensions":{},"alphaMode":"OPAQUE","doubleSided":false},{"pbrMetallicRoughness":{"baseColorFactor":[0.04455262731642138,0.04614884242235095,0.08021925873621505,1],"metallicFactor":0,"roughnessFactor":1},"name":"Black material","emissiveFactor":[0,0,0],"extensions":{},"alphaMode":"OPAQUE","doubleSided":false},{"pbrMetallicRoughness":{"baseColorFactor":[0.8512516451845149,0.8512516451845149,0.8512516451845149,1],"metallicFactor":0,"roughnessFactor":1},"name":"White material","emissiveFactor":[0,0,0],"extensions":{},"alphaMode":"OPAQUE","doubleSided":false},{"pbrMetallicRoughness":{"baseColorFactor":[0.04455262731642138,0.04614884242235095,0.08021925873621505,1],"metallicFactor":0,"roughnessFactor":0},"name":"Window glass","emissiveFactor":[0,0,0],"extensions":{},"alphaMode":"OPAQUE","doubleSided":false},{"pbrMetallicRoughness":{"baseColorFactor":[0.04455262731642138,0.04614884242235095,0.08021925873621505,1],"metallicFactor":0,"roughnessFactor":1},"name":"Black material","emissiveFactor":[0,0,0],"extensions":{},"alphaMode":"OPAQUE","doubleSided":false},{"pbrMetallicRoughness":{"baseColorFactor":[0.8512516451845149,0.8512516451845149,0.8512516451845149,1],"metallicFactor":0,"roughnessFactor":1},"name":"White material","emissiveFactor":[0,0,0],"extensions":{},"alphaMode":"OPAQUE","doubleSided":false},{"pbrMetallicRoughness":{"baseColorFactor":[0.04455262731642138,0.04614884242235095,0.08021925873621505,1],"metallicFactor":0,"roughnessFactor":1},"name":"Black material","emissiveFactor":[0,0,0],"extensions":{},"alphaMode":"OPAQUE","doubleSided":false}],"meshes":[{"primitives":[{"mode":4,"attributes":{"POSITION":1,"NORMAL":2,"TEXCOORD_0":3},"material":0,"indices":0}]},{"primitives":[{"mode":4,"attributes":{"POSITION":5,"NORMAL":6,"TEXCOORD_0":7},"material":1,"indices":4}]},{"primitives":[{"mode":4,"attributes":{"POSITION":9,"NORMAL":10,"TEXCOORD_0":11},"material":2,"indices":8}]},{"primitives":[{"mode":4,"attributes":{"POSITION":13,"NORMAL":14,"TEXCOORD_0":15},"material":3,"indices":12}]},{"primitives":[{"mode":4,"attributes":{"POSITION":17,"NORMAL":18,"TEXCOORD_0":19},"material":4,"indices":16}]},{"primitives":[{"mode":4,"attributes":{"POSITION":21,"NORMAL":22,"TEXCOORD_0":23},"material":5,"indices":20}]},{"primitives":[{"mode":4,"attributes":{"POSITION":25,"NORMAL":26,"TEXCOORD_0":27},"material":6,"indices":24}]}],"accessors":[{"bufferView":0,"byteOffset":0,"componentType":5125,"count":768,"type":"SCALAR"},{"bufferView":1,"byteOffset":0,"componentType":5126,"count":354,"max":[40,20,92],"min":[-20,-40,0],"type":"VEC3"},{"bufferView":2,"byteOffset":0,"componentType":5126,"count":354,"type":"VEC3"},{"bufferView":3,"byteOffset":0,"componentType":5126,"count":354,"type":"VEC2"},{"bufferView":4,"byteOffset":0,"componentType":5125,"count":192,"type":"SCALAR"},{"bufferView":5,"byteOffset":0,"componentType":5126,"count":96,"max":[30,20,110.18599700927734],"min":[-30,-20,0],"type":"VEC3"},{"bufferView":6,"byteOffset":0,"componentType":5126,"count":96,"type":"VEC3"},{"bufferView":7,"byteOffset":0,"componentType":5126,"count":96,"type":"VEC2"},{"bufferView":8,"byteOffset":0,"componentType":5125,"count":84,"type":"SCALAR"},{"bufferView":9,"byteOffset":0,"componentType":5126,"count":48,"max":[25,25,120.18599700927734],"min":[-5,-25,110.18599700927734],"type":"VEC3"},{"bufferView":10,"byteOffset":0,"componentType":5126,"count":48,"type":"VEC3"},{"bufferView":11,"byteOffset":0,"componentType":5126,"count":48,"type":"VEC2"},{"bufferView":12,"byteOffset":0,"componentType":5125,"count":504,"type":"SCALAR"},{"bufferView":13,"byteOffset":0,"componentType":5126,"count":336,"max":[38.29499816894531,27.613000869750977,105.4530029296875],"min":[-18.295000076293945,-35.77299880981445,6.2270002365112305],"type":"VEC3"},{"bufferView":14,"byteOffset":0,"componentType":5126,"count":336,"type":"VEC3"},{"bufferView":15,"byteOffset":0,"componentType":5126,"count":336,"type":"VEC2"},{"bufferView":16,"byteOffset":0,"componentType":5125,"count":2880,"type":"SCALAR"},{"bufferView":17,"byteOffset":0,"componentType":5126,"count":1216,"max":[39.25699996948242,15.77299976348877,87.77300262451172],"min":[-19.256999969482422,-35.77299880981445,6.2270002365112305],"type":"VEC3"},{"bufferView":18,"byteOffset":0,"componentType":5126,"count":1216,"type":"VEC3"},{"bufferView":19,"byteOffset":0,"componentType":5126,"count":1216,"type":"VEC2"},{"bufferView":20,"byteOffset":0,"componentType":5125,"count":192,"type":"SCALAR"},{"bufferView":21,"byteOffset":0,"componentType":5126,"count":96,"max":[25.267000198364258,28.788999557495117,105.4530029296875],"min":[-5.26800012588501,27,9.732000350952148],"type":"VEC3"},{"bufferView":22,"byteOffset":0,"componentType":5126,"count":96,"type":"VEC3"},{"bufferView":23,"byteOffset":0,"componentType":5126,"count":96,"type":"VEC2"},{"bufferView":24,"byteOffset":0,"componentType":5125,"count":36,"type":"SCALAR"},{"bufferView":25,"byteOffset":0,"componentType":5126,"count":24,"max":[22.503000259399414,22.503000259399414,116.4530029296875],"min":[-2.503000020980835,-22.503000259399414,116.18599700927734],"type":"VEC3"},{"bufferView":26,"byteOffset":0,"componentType":5126,"count":24,"type":"VEC3"},{"bufferView":27,"byteOffset":0,"componentType":5126,"count":24,"type":"VEC2"}],"bufferViews":[{"buffer":0,"byteOffset":0,"byteLength":3072,"target":34963},{"buffer":0,"byteOffset":3072,"byteLength":4248,"target":34962},{"buffer":0,"byteOffset":7320,"byteLength":4248,"target":34962},{"buffer":0,"byteOffset":11568,"byteLength":2832,"target":34962},{"buffer":0,"byteOffset":14400,"byteLength":768,"target":34963},{"buffer":0,"byteOffset":15168,"byteLength":1152,"target":34962},{"buffer":0,"byteOffset":16320,"byteLength":1152,"target":34962},{"buffer":0,"byteOffset":17472,"byteLength":768,"target":34962},{"buffer":0,"byteOffset":18240,"byteLength":336,"target":34963},{"buffer":0,"byteOffset":18576,"byteLength":576,"target":34962},{"buffer":0,"byteOffset":19152,"byteLength":576,"target":34962},{"buffer":0,"byteOffset":19728,"byteLength":384,"target":34962},{"buffer":0,"byteOffset":20112,"byteLength":2016,"target":34963},{"buffer":0,"byteOffset":22128,"byteLength":4032,"target":34962},{"buffer":0,"byteOffset":26160,"byteLength":4032,"target":34962},{"buffer":0,"byteOffset":30192,"byteLength":2688,"target":34962},{"buffer":0,"byteOffset":32880,"byteLength":11520,"target":34963},{"buffer":0,"byteOffset":44400,"byteLength":14592,"target":34962},{"buffer":0,"byteOffset":58992,"byteLength":14592,"target":34962},{"buffer":0,"byteOffset":73584,"byteLength":9728,"target":34962},{"buffer":0,"byteOffset":83312,"byteLength":768,"target":34963},{"buffer":0,"byteOffset":84080,"byteLength":1152,"target":34962},{"buffer":0,"byteOffset":85232,"byteLength":1152,"target":34962},{"buffer":0,"byteOffset":86384,"byteLength":768,"target":34962},{"buffer":0,"byteOffset":87152,"byteLength":144,"target":34963},{"buffer":0,"byteOffset":87296,"byteLength":288,"target":34962},{"buffer":0,"byteOffset":87584,"byteLength":288,"target":34962},{"buffer":0,"byteOffset":87872,"byteLength":192,"target":34962}],"scene":0,"scenes":[{"nodes":[0],"name":"Demo"}],"extensionsUsed":["KHR_texture_transform"],"buffers":[{"byteLength":88064,"uri":"Demo.bin"}]}