{"asset":{"version":"2.0","generator":"VECTARY"},"nodes":[{"translation":[-0.5,0.5,8.526512829121202e-17],"scale":[0.01,0.01,0.001],"rotation":[-0.5,0.5,-0.4999999999999999,0.5000000000000001],"name":"Plane 1","mesh":0},{"translation":[0,0,0],"scale":[0.0009013789294863283,0.0012392838096245257,0.001],"rotation":[-0.7071067811865475,0,0,0.7071067811865476],"name":"Floor","children":[2]},{"translation":[3.120566950465544,3.0067405179823368,5.746819606570156],"scale":[1.001635528908663,1.001635528908663,1.001635528908663],"rotation":[0,0,0,1],"name":"Plane","mesh":1}],"materials":[{"pbrMetallicRoughness":{"baseColorFactor":[1,1,1,1],"metallicFactor":0,"roughnessFactor":0.3},"name":"Stripes","normalTexture":{"index":0,"scale":0.3,"extensions":{"KHR_texture_transform":{"offset":[0,0],"scale":[2,2],"rotation":0}},"texCoord":0},"emissiveFactor":[0,0,0],"extensions":{"KHR_materials_transmission":{"transmissionFactor":1},"KHR_materials_ior":{"ior":1.333},"KHR_materials_volume":{"thicknessFactor":0.01,"attenuationDistance":0.01,"attenuationColor":[1,1,1]}},"alphaMode":"OPAQUE","doubleSided":false},{"pbrMetallicRoughness":{"baseColorFactor":[1,1,1,0.74],"baseColorTexture":{"index":1,"extensions":{"KHR_texture_transform":{"offset":[0,0],"scale":[1,1],"rotation":0}},"texCoord":0},"metallicRoughnessTexture":{"index":3,"extensions":{"KHR_texture_transform":{"offset":[0,0],"scale":[1,1],"rotation":0}},"texCoord":0},"metallicFactor":0.47,"roughnessFactor":0.55},"name":"Concrete 1","normalTexture":{"index":2,"scale":1,"extensions":{"KHR_texture_transform":{"offset":[0,0],"scale":[1,1],"rotation":0}},"texCoord":0},"emissiveFactor":[0,0,0],"extensions":{},"alphaMode":"BLEND","doubleSided":false}],"textures":[{"sampler":0,"source":0},{"sampler":0,"source":1},{"sampler":0,"source":2},{"sampler":0,"source":3}],"images":[{"uri":"18normal.jpg","mimeType":"image/jpeg"},{"uri":"Concrete_007_Color.jpg","mimeType":"image/jpeg"},{"uri":"Concrete_007_NormalMap.jpg","mimeType":"image/jpeg"},{"uri":"Concrete_007_Metalic&Concrete_007_Roughness.jpg","mimeType":"image/jpeg"}],"samplers":[{"wrapS":10497,"wrapT":10497}],"meshes":[{"primitives":[{"mode":4,"attributes":{"POSITION":1,"NORMAL":2,"TEXCOORD_0":3},"material":0,"indices":0}]},{"primitives":[{"mode":4,"attributes":{"POSITION":5,"NORMAL":6,"TEXCOORD_0":7},"material":1,"indices":4}]}],"accessors":[{"bufferView":0,"byteOffset":0,"componentType":5125,"count":5196,"type":"SCALAR"},{"bufferView":1,"byteOffset":0,"componentType":5126,"count":902,"max":[50,50,0],"min":[-50,-50,0],"type":"VEC3"},{"bufferView":2,"byteOffset":0,"componentType":5126,"count":902,"type":"VEC3"},{"bufferView":3,"byteOffset":0,"componentType":5126,"count":902,"type":"VEC2"},{"bufferView":4,"byteOffset":0,"componentType":5125,"count":4998,"type":"SCALAR"},{"bufferView":5,"byteOffset":0,"componentType":5126,"count":868,"max":[553.7999877929688,402.79998779296875,0],"min":[-553.7999877929688,-402.79998779296875,0],"type":"VEC3"},{"bufferView":6,"byteOffset":0,"componentType":5126,"count":868,"type":"VEC3"},{"bufferView":7,"byteOffset":0,"componentType":5126,"count":868,"type":"VEC2"}],"bufferViews":[{"buffer":0,"byteOffset":0,"byteLength":20784,"target":34963},{"buffer":0,"byteOffset":20784,"byteLength":10824,"target":34962},{"buffer":0,"byteOffset":31608,"byteLength":10824,"target":34962},{"buffer":0,"byteOffset":42432,"byteLength":7216,"target":34962},{"buffer":0,"byteOffset":49648,"byteLength":19992,"target":34963},{"buffer":0,"byteOffset":69640,"byteLength":10416,"target":34962},{"buffer":0,"byteOffset":80056,"byteLength":10416,"target":34962},{"buffer":0,"byteOffset":90472,"byteLength":6944,"target":34962}],"scene":0,"scenes":[{"nodes":[0,1],"name":"Demo - Stand desk"}],"extensionsUsed":["KHR_texture_transform","KHR_materials_ior","KHR_materials_volume","KHR_materials_transmission"],"buffers":[{"byteLength":97416,"uri":"Demo- Stand desk.bin"}]}